<svg class="diagram-root" style="background: #f5f6f6" xmlns="http://www.w3.org/2000/svg" xmlns:xlink="http://www.w3.org/1999/xlink"><style>.diagram-root { font-family: "Helvetica Neue", sans-serif; font-size: 12px; } .t { overflow: visible; } .t-bg { y: 40; fill: #fff;   } .th { fill: #005aa0;   } .tht { fill: #fff; font-size: 14px;  } .tf { fill: #323c46; overflow: visible; } .tf.pk { fill: #005aa0; font-weight: bold; } .tf.fk { font-weight: bold; } .ty { fill: #adb1b5; font-weight: normal; text-anchor: end; } .r { fill: transparent; stroke: #c3c3c3; stroke-width: 1; } .l { stroke: 1; } .i { fill: #c2c7ce; stroke: #c2c7ce; } .i.ix { fill: #afb3b6; stroke: #000; } .fa { fill: transparent; overflow: visible; } .fa .bg.hover { fill: #f7f7f7; } .c { cy: 12; r: 4; stroke: #d2d2dc; fill: #d2d2dc; } .hr { fill: transparent; stroke: #323c46; stroke-opacity: 0.035; stroke-width: 13; } .dc { stroke: #fa5a3c; fill: #fa5a3c; } .x { stroke: white; stroke-width: 1; } .hl .th { fill: #1b9bff; } .hl .tht {  } .fhl .bg { fill: #e7f4ff; } .fhls .bg {  } .r.hl { stroke: #1b9bff; } .dim { opacity: 0.25; }</style><g class="drawing-wrapper" transform="translate(-12, 42) scale(1,1)"><g class="rs"><path d="M 208.07 53 m -1, 0 a 1,1 0 1,0 2,0 a 1,1 0 1,0 -2,0 M 208.07 53 m -0.5, 0 a 0.5,0.5 0 1,0 1,0 a 0.5,0.5 0 1,0 -1,0  M208.07 53 L208.07 53 220.07 53 M 208.07 59 m -1, 0 a 1,1 0 1,0 2,0 a 1,1 0 1,0 -2,0 M 208.07 59 m -0.5, 0 a 0.5,0.5 0 1,0 1,0 a 0.5,0.5 0 1,0 -1,0  M208.07 59 L208.07 59 215.07 53 208.07 47 M 208.07 47 m -1, 0 a 1,1 0 1,0 2,0 a 1,1 0 1,0 -2,0 M 208.07 47 m -0.5, 0 a 0.5,0.5 0 1,0 1,0 a 0.5,0.5 0 1,0 -1,0  M220.07 53 Q 262.05 53, 304.03 49 T 388 45 M 400 45 m -1, 0 a 1,1 0 1,0 2,0 a 1,1 0 1,0 -2,0 M 400 45 m -0.5, 0 a 0.5,0.5 0 1,0 1,0 a 0.5,0.5 0 1,0 -1,0  M400 45 L400 45 388 45 M394 51 L394 51 394 39" id="h1243215239" class="r"></path><path d="M 48 369 m -1, 0 a 1,1 0 1,0 2,0 a 1,1 0 1,0 -2,0 M 48 369 m -0.5, 0 a 0.5,0.5 0 1,0 1,0 a 0.5,0.5 0 1,0 -1,0  M48 369 L48 369 36 369 M 48 375 m -1, 0 a 1,1 0 1,0 2,0 a 1,1 0 1,0 -2,0 M 48 375 m -0.5, 0 a 0.5,0.5 0 1,0 1,0 a 0.5,0.5 0 1,0 -1,0  M48 375 L48 375 41 369 48 363 M 48 363 m -1, 0 a 1,1 0 1,0 2,0 a 1,1 0 1,0 -2,0 M 48 363 m -0.5, 0 a 0.5,0.5 0 1,0 1,0 a 0.5,0.5 0 1,0 -1,0  M36 369 C -36.400000000000006 369, -28 53, 22 53 M 34 53 m -1, 0 a 1,1 0 1,0 2,0 a 1,1 0 1,0 -2,0 M 34 53 m -0.5, 0 a 0.5,0.5 0 1,0 1,0 a 0.5,0.5 0 1,0 -1,0  M34 53 L34 53 22 53 M28 59 L28 59 28 47" id="h3233325729" class="r"></path><path d="M 400 70 m -1, 0 a 1,1 0 1,0 2,0 a 1,1 0 1,0 -2,0 M 400 70 m -0.5, 0 a 0.5,0.5 0 1,0 1,0 a 0.5,0.5 0 1,0 -1,0  M400 70 L400 70 388 70 M 400 76 m -1, 0 a 1,1 0 1,0 2,0 a 1,1 0 1,0 -2,0 M 400 76 m -0.5, 0 a 0.5,0.5 0 1,0 1,0 a 0.5,0.5 0 1,0 -1,0  M400 76 L400 76 393 70 400 64 M 400 64 m -1, 0 a 1,1 0 1,0 2,0 a 1,1 0 1,0 -2,0 M 400 64 m -0.5, 0 a 0.5,0.5 0 1,0 1,0 a 0.5,0.5 0 1,0 -1,0  M388 70 C 338 70, 243.2 372, 546 372 M 558 372 m -1, 0 a 1,1 0 1,0 2,0 a 1,1 0 1,0 -2,0 M 558 372 m -0.5, 0 a 0.5,0.5 0 1,0 1,0 a 0.5,0.5 0 1,0 -1,0  M558 372 L558 372 546 372 M552 378 L552 378 552 366" id="h1130742295" class="r"></path><path d="M 736.73 397 m -1, 0 a 1,1 0 1,0 2,0 a 1,1 0 1,0 -2,0 M 736.73 397 m -0.5, 0 a 0.5,0.5 0 1,0 1,0 a 0.5,0.5 0 1,0 -1,0  M736.73 397 L736.73 397 748.73 397 M 736.73 403 m -1, 0 a 1,1 0 1,0 2,0 a 1,1 0 1,0 -2,0 M 736.73 403 m -0.5, 0 a 0.5,0.5 0 1,0 1,0 a 0.5,0.5 0 1,0 -1,0  M736.73 403 L736.73 403 743.73 397 736.73 391 M 736.73 391 m -1, 0 a 1,1 0 1,0 2,0 a 1,1 0 1,0 -2,0 M 736.73 391 m -0.5, 0 a 0.5,0.5 0 1,0 1,0 a 0.5,0.5 0 1,0 -1,0  M748.73 397 Q 787.05 397, 825.37 382 T 902 367 M 914 367 m -1, 0 a 1,1 0 1,0 2,0 a 1,1 0 1,0 -2,0 M 914 367 m -0.5, 0 a 0.5,0.5 0 1,0 1,0 a 0.5,0.5 0 1,0 -1,0  M914 367 L914 367 902 367 M908 373 L908 373 908 361" id="h133153459" class="r"></path><path d="M 881.36 54 m -1, 0 a 1,1 0 1,0 2,0 a 1,1 0 1,0 -2,0 M 881.36 54 m -0.5, 0 a 0.5,0.5 0 1,0 1,0 a 0.5,0.5 0 1,0 -1,0  M881.36 54 L881.36 54 893.36 54 M 881.36 60 m -1, 0 a 1,1 0 1,0 2,0 a 1,1 0 1,0 -2,0 M 881.36 60 m -0.5, 0 a 0.5,0.5 0 1,0 1,0 a 0.5,0.5 0 1,0 -1,0  M881.36 60 L881.36 60 888.36 54 881.36 48 M 881.36 48 m -1, 0 a 1,1 0 1,0 2,0 a 1,1 0 1,0 -2,0 M 881.36 48 m -0.5, 0 a 0.5,0.5 0 1,0 1,0 a 0.5,0.5 0 1,0 -1,0  M893.36 54 C 943.36 54, 1030.138 372, 748.73 372 M 736.73 372 m -1, 0 a 1,1 0 1,0 2,0 a 1,1 0 1,0 -2,0 M 736.73 372 m -0.5, 0 a 0.5,0.5 0 1,0 1,0 a 0.5,0.5 0 1,0 -1,0  M736.73 372 L736.73 372 748.73 372 M742.73 378 L742.73 378 742.73 366" id="h221257298" class="r"></path></g><g class="hrs"></g><g class="ts"><svg width="174.07" height="100" x="34" y="-4" id="h3708248841" class="t"><rect height="40" width="174.07" class="th"></rect><text x="13" y="25" class="tht">Departments</text><rect height="60" width="174.07" class="t-bg" y="40"></rect><text x="13" y="61" class="tf pk">dept_no<tspan x="161.07" class="ty">varchar(5)</tspan></text><path d="M7,14A2,2 0 0,1 5,12A2,2 0 0,1 7,10A2,2 0 0,1 9,12A2,2 0 0,1 7,14M12.65,10C11.83,7.67 9.61,6 7, 6A6, 6 0 0, 0 1, 12A6, 6 0 0, 0 7, 18C9.61, 18 11.83, 16.33 12.65, 14H17V18H21V14H23V10H12.65Z" class="i pk" transform="translate(86.3903125, 48) scale(0.65)"></path><text x="13" y="86" class="tf">dept_name<tspan x="161.07" class="ty">varchar(255)</tspan></text></svg><svg width="144.06" height="100" x="48" y="287" id="h4086156755" class="t"><rect height="40" width="144.06" class="th"></rect><text x="13" y="25" class="tht">Dept_emp</text><rect height="60" width="144.06" class="t-bg" y="40"></rect><text x="13" y="61" class="tf">emp_no<tspan x="131.06" class="ty">int</tspan></text><text x="13" y="86" class="tf fk">dept_no<tspan x="131.06" class="ty">varchar(5)</tspan></text></svg><svg width="144.06" height="100" x="400" y="-12" id="h754932316" class="t"><rect height="40" width="144.06" class="th"></rect><text x="13" y="25" class="tht">Dept_Manager</text><rect height="60" width="144.06" class="t-bg" y="40"></rect><text x="13" y="61" class="tf fk">dept_no<tspan x="131.06" class="ty">varchar(5)</tspan></text><text x="13" y="86" class="tf fk">emp_no<tspan x="131.06" class="ty">int</tspan></text></svg><svg width="178.73" height="225" x="558" y="315" id="h3299212598" class="t"><rect height="40" width="178.73" class="th"></rect><text x="13" y="25" class="tht">Employees</text><rect height="185" width="178.73" class="t-bg" y="40"></rect><text x="13" y="61" class="tf pk">emp_no<tspan x="165.73" class="ty">int</tspan></text><path d="M7,14A2,2 0 0,1 5,12A2,2 0 0,1 7,10A2,2 0 0,1 9,12A2,2 0 0,1 7,14M12.65,10C11.83,7.67 9.61,6 7, 6A6, 6 0 0, 0 1, 12A6, 6 0 0, 0 7, 18C9.61, 18 11.83, 16.33 12.65, 14H17V18H21V14H23V10H12.65Z" class="i pk" transform="translate(133.056171875, 48) scale(0.65)"></path><text x="13" y="86" class="tf fk">emp_title_id<tspan x="165.73" class="ty">varchar(255)</tspan></text><text x="13" y="111" class="tf">birth_date<tspan x="165.73" class="ty">date</tspan></text><text x="13" y="136" class="tf">first_name<tspan x="165.73" class="ty">varchar(255)</tspan></text><text x="13" y="161" class="tf">last_name<tspan x="165.73" class="ty">varchar(255)</tspan></text><text x="13" y="186" class="tf">sex<tspan x="165.73" class="ty">varchar(1)</tspan></text><text x="13" y="211" class="tf">hire_date<tspan x="165.73" class="ty">date</tspan></text></svg><svg width="119.36" height="100" x="762" y="-3" id="h3858243705" class="t"><rect height="40" width="119.36" class="th"></rect><text x="13" y="25" class="tht">Salaries</text><rect height="60" width="119.36" class="t-bg" y="40"></rect><text x="13" y="61" class="tf fk">emp_no<tspan x="106.36" class="ty">int</tspan></text><text x="13" y="86" class="tf">salary<tspan x="106.36" class="ty">decimal</tspan></text></svg><svg width="168.71" height="100" x="914" y="310" id="h3517680912" class="t"><rect height="40" width="168.71" class="th"></rect><text x="13" y="25" class="tht">Titles</text><rect height="60" width="168.71" class="t-bg" y="40"></rect><text x="13" y="61" class="tf pk">title_id<tspan x="155.71" class="ty">varchar(255)</tspan></text><path d="M7,14A2,2 0 0,1 5,12A2,2 0 0,1 7,10A2,2 0 0,1 9,12A2,2 0 0,1 7,14M12.65,10C11.83,7.67 9.61,6 7, 6A6, 6 0 0, 0 1, 12A6, 6 0 0, 0 7, 18C9.61, 18 11.83, 16.33 12.65, 14H17V18H21V14H23V10H12.65Z" class="i pk" transform="translate(67.68265625000001, 48) scale(0.65)"></path><text x="13" y="86" class="tf">title<tspan x="155.71" class="ty">varchar(255)</tspan></text></svg></g></g><text class="qdbd-link" x="10" y="20">www.quickdatabasediagrams.com</text></svg>